# xmcd
#
# Track frame offsets: 
#        150
#        17044
#        37972
#        54753
#        75671
#        91117
#        110807
#        128561
#        146194
#        163443
#        174070
#        186965
#        200380
#
# Disc length: 2975 seconds
#
# Revision: 0
# Processed by: cddbd v1.5.2PL0 Copyright (c) Steve Scherf et al.
# Submitted via: ExactAudioCopy v1.0b1
#
DISCID=a50b9d0d
DTITLE=Ron Hacker - Filthy Animal
DYEAR=2011
DGENRE=Blues
TTITLE0=You Gotta Move, Part 1
TTITLE1=Bad Boy
TTITLE2=I'm Goin' Away
TTITLE3=Meet Me In The Bottom
TTITLE4=Goin' Down To The River
TTITLE5=Evil
TTITLE6=Death Letter Blues
TTITLE7=Gonna' Miss You
TTITLE8=Shotgun
TTITLE9=Someday Baby
TTITLE10=Why
TTITLE11=Champagne And Reefer
TTITLE12=Filthy Animal (Chameleon)
EXTD=
EXTT0=
EXTT1=
EXTT2=
EXTT3=
EXTT4=
EXTT5=
EXTT6=
EXTT7=
EXTT8=
EXTT9=
EXTT10=
EXTT11=
EXTT12=
PLAYORDER=
